{
  "accessors": [
    {
      "bufferView": 2,
      "componentType": 5126,
      "count": 7859,
      "max": [
        294.0260925292969,
        64.0963363647461,
        109.90703582763672
      ],
      "min": [
        -347.3422546386719,
        -61.16829299926758,
        -31.00164031982422
      ],
      "type": "VEC3"
    },
    {
      "bufferView": 2,
      "byteOffset": 94308,
      "componentType": 5126,
      "count": 7859,
      "max": [
        0.9998771548271179,
        0.9998745918273926,
        1.0
      ],
      "min": [
        -0.9998748898506165,
        -0.9998742341995239,
        -1.0
      ],
      "type": "VEC3"
    },
    {
      "bufferView": 1,
      "componentType": 5126,
      "count": 7859,
      "max": [
        2.769531011581421,
        0.997173011302948
      ],
      "min": [
        0.0029509998857975006,
        0.002929985523223877
      ],
      "type": "VEC2"
    },
    {
      "bufferView": 0,
      "componentType": 5125,
      "count": 28944,
      "type": "SCALAR"
    },
    {
      "bufferView": 2,
      "byteOffset": 188616,
      "componentType": 5126,
      "count": 726,
      "max": [
        293.91009521484375,
        62.7247314453125,
        117.36884307861328
      ],
      "min": [
        -347.2200012207031,
        -61.16825866699219,
        90.98635864257813
      ],
      "type": "VEC3"
    },
    {
      "bufferView": 2,
      "byteOffset": 197328,
      "componentType": 5126,
      "count": 726,
      "max": [
        0.9998757243156433,
        0.9994802474975586,
        1.0
      ],
      "min": [
        -0.9998749494552612,
        -0.999874472618103,
        -1.0
      ],
      "type": "VEC3"
    },
    {
      "bufferView": 3,
      "componentType": 5126,
      "count": 726,
      "max": [
        1.0,
        1.0,
        0.9998741745948792,
        1.0
      ],
      "min": [
        -1.0,
        -0.9897035360336304,
        -0.9999986886978149,
        1.0
      ],
      "type": "VEC4"
    },
    {
      "bufferView": 1,
      "byteOffset": 62872,
      "componentType": 5126,
      "count": 726,
      "max": [
        0.9970700144767761,
        0.996487021446228
      ],
      "min": [
        0.0047530001029372215,
        0.004395008087158203
      ],
      "type": "VEC2"
    },
    {
      "bufferView": 0,
      "byteOffset": 115776,
      "componentType": 5125,
      "count": 3204,
      "type": "SCALAR"
    },
    {
      "bufferView": 2,
      "byteOffset": 206040,
      "componentType": 5126,
      "count": 5363,
      "max": [
        294.0260925292969,
        -42.41279220581055,
        91.55780029296875
      ],
      "min": [
        -347.3422546386719,
        -62.539817810058594,
        -31.001680374145508
      ],
      "type": "VEC3"
    },
    {
      "bufferView": 2,
      "byteOffset": 270396,
      "componentType": 5126,
      "count": 5363,
      "max": [
        0.9998793601989746,
        0.9998742341995239,
        1.0
      ],
      "min": [
        -0.9998779296875,
        -0.999875009059906,
        -1.0
      ],
      "type": "VEC3"
    },
    {
      "bufferView": 1,
      "byteOffset": 68680,
      "componentType": 5126,
      "count": 5363,
      "max": [
        1.996093988418579,
        0.997173011302948
      ],
      "min": [
        0.0029509998857975006,
        0.002929985523223877
      ],
      "type": "VEC2"
    },
    {
      "bufferView": 0,
      "byteOffset": 128592,
      "componentType": 5125,
      "count": 21666,
      "type": "SCALAR"
    },
    {
      "bufferView": 2,
      "byteOffset": 334752,
      "componentType": 5126,
      "count": 8152,
      "max": [
        315.30450439453125,
        59.65686798095703,
        114.10083770751953
      ],
      "min": [
        -368.6116943359375,
        -58.10038757324219,
        -43.0702018737793
      ],
      "type": "VEC3"
    },
    {
      "bufferView": 2,
      "byteOffset": 432576,
      "componentType": 5126,
      "count": 8152,
      "max": [
        0.9999064803123474,
        0.9998759031295776,
        1.0
      ],
      "min": [
        -0.9998757243156433,
        -0.9998750686645508,
        -1.0
      ],
      "type": "VEC3"
    },
    {
      "bufferView": 3,
      "byteOffset": 11616,
      "componentType": 5126,
      "count": 8152,
      "max": [
        1.0,
        1.0,
        0.9998742938041687,
        1.0
      ],
      "min": [
        -1.0,
        -1.0,
        -1.0,
        -1.0
      ],
      "type": "VEC4"
    },
    {
      "bufferView": 1,
      "byteOffset": 111584,
      "componentType": 5126,
      "count": 8152,
      "max": [
        1.9833979606628418,
        0.997672975063324
      ],
      "min": [
        0.0015140000032261014,
        0.0019530057907104492
      ],
      "type": "VEC2"
    },
    {
      "bufferView": 0,
      "byteOffset": 215256,
      "componentType": 5125,
      "count": 32274,
      "type": "SCALAR"
    },
    {
      "bufferView": 2,
      "byteOffset": 530400,
      "componentType": 5126,
      "count": 21728,
      "max": [
        286.23895263671875,
        62.407752990722656,
        -10.446159362792969
      ],
      "min": [
        -339.4657897949219,
        -61.735565185546875,
        -51.87679672241211
      ],
      "type": "VEC3"
    },
    {
      "bufferView": 2,
      "byteOffset": 791136,
      "componentType": 5126,
      "count": 21728,
      "max": [
        0.9998779892921448,
        0.9998783469200134,
        1.0
      ],
      "min": [
        -0.9998771548271179,
        -0.9998785257339478,
        -1.0
      ],
      "type": "VEC3"
    },
    {
      "bufferView": 3,
      "byteOffset": 142048,
      "componentType": 5126,
      "count": 21728,
      "max": [
        1.0,
        1.0,
        0.999999463558197,
        1.0
      ],
      "min": [
        -1.0,
        -1.0,
        -0.9999995231628418,
        -1.0
      ],
      "type": "VEC4"
    },
    {
      "bufferView": 1,
      "byteOffset": 176800,
      "componentType": 5126,
      "count": 21728,
      "max": [
        1.9970699548721313,
        0.9977549910545349
      ],
      "min": [
        0.0014830000000074506,
        0.0019530057907104492
      ],
      "type": "VEC2"
    },
    {
      "bufferView": 0,
      "byteOffset": 344352,
      "componentType": 5125,
      "count": 88164,
      "type": "SCALAR"
    }
  ],
  "asset": {
    "extras": {
      "author": "CHANO (https://sketchfab.com/pedroribeiro.1104)",
      "license": "CC-BY-4.0 (http://creativecommons.org/licenses/by/4.0/)",
      "source": "https://sketchfab.com/3d-models/half-life-alxy-passenger-train-car-6f9bad69882f474e82543867cc8d55b5",
      "title": "Half-Life Alxy  passenger train car"
    },
    "generator": "Sketchfab-16.12.0",
    "version": "2.0"
  },
  "bufferViews": [
    {
      "buffer": 0,
      "byteLength": 697008,
      "name": "floatBufferViews",
      "target": 34963
    },
    {
      "buffer": 0,
      "byteLength": 350624,
      "byteOffset": 697008,
      "byteStride": 8,
      "name": "floatBufferViews",
      "target": 34962
    },
    {
      "buffer": 0,
      "byteLength": 1051872,
      "byteOffset": 1047632,
      "byteStride": 12,
      "name": "floatBufferViews",
      "target": 34962
    },
    {
      "buffer": 0,
      "byteLength": 489696,
      "byteOffset": 2099504,
      "byteStride": 16,
      "name": "floatBufferViews",
      "target": 34962
    }
  ],
  "buffers": [
    {
      "byteLength": 2589200,
      "uri": "scene.bin"
    }
  ],
  "images": [
    {
      "uri": "textures/pass_train_coach_rightwall_psd_f70473da_albedo_baseColor.jpeg"
    },
    {
      "uri": "textures/pass_train_coach_roof_psd_322fb68f_albedo_baseColor.jpeg"
    },
    {
      "uri": "textures/pass_train_coach_roof_psd_322fb68f_albedo_normal.png"
    },
    {
      "uri": "textures/pass_train_coach_leftwall_psd_936e710d_albedo_baseColor.jpeg"
    },
    {
      "uri": "textures/pass_train_coach_ends_psd_be419a94_albedo_baseColor.jpeg"
    },
    {
      "uri": "textures/pass_train_coach_ends_psd_be419a94_albedo_normal.png"
    },
    {
      "uri": "textures/pass_train_coach_bogie_psd_a85e6477_albedo_baseColor.jpeg"
    },
    {
      "uri": "textures/pass_train_coach_bogie_psd_a85e6477_albedo_normal.png"
    }
  ],
  "materials": [
    {
      "doubleSided": true,
      "name": "pass_train_coach_rightwall_psd_f70473da_albedo",
      "pbrMetallicRoughness": {
        "baseColorTexture": {
          "index": 0
        },
        "metallicFactor": 0.0,
        "roughnessFactor": 0.9559854314365357
      }
    },
    {
      "doubleSided": true,
      "name": "pass_train_coach_roof_psd_322fb68f_albedo",
      "normalTexture": {
        "index": 2
      },
      "pbrMetallicRoughness": {
        "baseColorTexture": {
          "index": 1
        },
        "metallicFactor": 0.0,
        "roughnessFactor": 0.9559854314365357
      }
    },
    {
      "doubleSided": true,
      "name": "pass_train_coach_leftwall_psd_936e710d_albedo",
      "pbrMetallicRoughness": {
        "baseColorTexture": {
          "index": 3
        },
        "metallicFactor": 0.0,
        "roughnessFactor": 0.9559854314365357
      }
    },
    {
      "doubleSided": true,
      "name": "pass_train_coach_ends_psd_be419a94_albedo",
      "normalTexture": {
        "index": 5
      },
      "pbrMetallicRoughness": {
        "baseColorTexture": {
          "index": 4
        },
        "metallicFactor": 0.0,
        "roughnessFactor": 0.9559854314365357
      }
    },
    {
      "doubleSided": true,
      "name": "pass_train_coach_bogie_psd_a85e6477_albedo",
      "normalTexture": {
        "index": 7
      },
      "pbrMetallicRoughness": {
        "baseColorTexture": {
          "index": 6
        },
        "metallicFactor": 0.0,
        "roughnessFactor": 0.9559854314365357
      }
    }
  ],
  "meshes": [
    {
      "name": "passenger_train_lcoach:passenger_train_lcoach_lod0_pass_train_coach_rightwall_psd_f70473da_albedo_0",
      "primitives": [
        {
          "attributes": {
            "NORMAL": 1,
            "POSITION": 0,
            "TEXCOORD_0": 2
          },
          "indices": 3,
          "material": 0,
          "mode": 4
        }
      ]
    },
    {
      "name": "passenger_train_lcoach:passenger_train_lcoach_lod0_pass_train_coach_roof_psd_322fb68f_albedo_0",
      "primitives": [
        {
          "attributes": {
            "NORMAL": 5,
            "POSITION": 4,
            "TANGENT": 6,
            "TEXCOORD_0": 7
          },
          "indices": 8,
          "material": 1,
          "mode": 4
        }
      ]
    },
    {
      "name": "passenger_train_lcoach:passenger_train_lcoach_lod0_pass_train_coach_leftwall_psd_936e710d_albedo_0",
      "primitives": [
        {
          "attributes": {
            "NORMAL": 10,
            "POSITION": 9,
            "TEXCOORD_0": 11
          },
          "indices": 12,
          "material": 2,
          "mode": 4
        }
      ]
    },
    {
      "name": "passenger_train_lcoach:passenger_train_lcoach_lod0_pass_train_coach_ends_psd_be419a94_albedo_0",
      "primitives": [
        {
          "attributes": {
            "NORMAL": 14,
            "POSITION": 13,
            "TANGENT": 15,
            "TEXCOORD_0": 16
          },
          "indices": 17,
          "material": 3,
          "mode": 4
        }
      ]
    },
    {
      "name": "passenger_train_lcoach:passenger_train_lcoach_lod0_pass_train_coach_bogie_psd_a85e6477_albedo_0",
      "primitives": [
        {
          "attributes": {
            "NORMAL": 19,
            "POSITION": 18,
            "TANGENT": 20,
            "TEXCOORD_0": 21
          },
          "indices": 22,
          "material": 4,
          "mode": 4
        }
      ]
    }
  ],
  "nodes": [
    {
      "children": [
        1
      ],
      "matrix": [
        1.0,
        0.0,
        0.0,
        0.0,
        0.0,
        2.220446049250313e-16,
        -1.0,
        0.0,
        0.0,
        1.0,
        2.220446049250313e-16,
        0.0,
        0.0,
        0.0,
        0.0,
        1.0
      ],
      "name": "Sketchfab_model"
    },
    {
      "children": [
        2
      ],
      "matrix": [
        0.009999999776482582,
        0.0,
        0.0,
        0.0,
        0.0,
        0.0,
        0.009999999776482582,
        0.0,
        0.0,
        -0.009999999776482582,
        0.0,
        0.0,
        0.0,
        0.0,
        0.0,
        1.0
      ],
      "name": "passenger_train_lcoach.fbx"
    },
    {
      "children": [
        3,
        6,
        9
      ],
      "name": "RootNode"
    },
    {
      "children": [
        4
      ],
      "matrix": [
        1.0,
        0.0,
        0.0,
        0.0,
        0.0,
        1.0,
        0.0,
        0.0,
        0.0,
        0.0,
        1.0,
        0.0,
        0.0,
        2.0,
        20.0,
        1.0
      ],
      "name": "Camera_Root"
    },
    {
      "children": [
        5
      ],
      "matrix": [
        1.0,
        0.0,
        0.0,
        0.0,
        0.0,
        1.0,
        0.0,
        0.0,
        0.0,
        0.0,
        1.0,
        0.0,
        -125.03620147705078,
        37.20672607421875,
        47.71906661987305,
        1.0
      ],
      "name": "Camera"
    },
    {
      "name": "Object_5"
    },
    {
      "children": [
        7
      ],
      "matrix": [
        0.7886751346162543,
        -0.2113248653990271,
        -0.5773502691625909,
        0.0,
        0.5773502691719581,
        0.5773502691693819,
        0.5773502692275372,
        0.0,
        0.2113248653734357,
        -0.7886751346112828,
        0.5773502691787491,
        0.0,
        1.0,
        1.0,
        1.0,
        1.0
      ],
      "name": "light"
    },
    {
      "children": [
        8
      ],
      "matrix": [
        1.0,
        0.0,
        0.0,
        0.0,
        0.0,
        2.220446049250313e-16,
        1.0,
        0.0,
        0.0,
        -1.0,
        2.220446049250313e-16,
        0.0,
        0.0,
        0.0,
        0.0,
        1.0
      ],
      "name": "Object_7"
    },
    {
      "name": "Object_8"
    },
    {
      "children": [
        10
      ],
      "matrix": [
        66.42528533935547,
        0.0,
        0.0,
        0.0,
        0.0,
        66.42528533935547,
        0.0,
        0.0,
        0.0,
        0.0,
        66.42528533935547,
        0.0,
        0.0,
        0.04762394726276398,
        0.0,
        1.0
      ],
      "name": "passenger_train_lcoach:passenger_train_lcoach"
    },
    {
      "children": [
        11,
        12,
        13,
        14,
        15
      ],
      "matrix": [
        0.002607298083603382,
        0.0,
        0.0,
        0.0,
        0.0,
        -4.245624498831297e-10,
        -0.002607298083603348,
        0.0,
        0.0,
        0.002607298083603348,
        -4.245624498831297e-10,
        0.0,
        0.0,
        0.14303246140480042,
        0.0,
        1.0
      ],
      "name": "passenger_train_lcoach:passenger_train_lcoach_lod0"
    },
    {
      "mesh": 0,
      "name": "passenger_train_lcoach:passenger_train_lcoach_lod0_pass_train_coach_rightwall_psd_f70473da_albedo_0"
    },
    {
      "mesh": 1,
      "name": "passenger_train_lcoach:passenger_train_lcoach_lod0_pass_train_coach_roof_psd_322fb68f_albedo_0"
    },
    {
      "mesh": 2,
      "name": "passenger_train_lcoach:passenger_train_lcoach_lod0_pass_train_coach_leftwall_psd_936e710d_albedo_0"
    },
    {
      "mesh": 3,
      "name": "passenger_train_lcoach:passenger_train_lcoach_lod0_pass_train_coach_ends_psd_be419a94_albedo_0"
    },
    {
      "mesh": 4,
      "name": "passenger_train_lcoach:passenger_train_lcoach_lod0_pass_train_coach_bogie_psd_a85e6477_albedo_0"
    }
  ],
  "samplers": [
    {
      "magFilter": 9729,
      "minFilter": 9987,
      "wrapS": 10497,
      "wrapT": 10497
    },
    {
      "magFilter": 9729,
      "minFilter": 9987,
      "wrapS": 10497,
      "wrapT": 33071
    }
  ],
  "scene": 0,
  "scenes": [
    {
      "name": "Sketchfab_Scene",
      "nodes": [
        0
      ]
    }
  ],
  "textures": [
    {
      "sampler": 0,
      "source": 0
    },
    {
      "sampler": 0,
      "source": 1
    },
    {
      "sampler": 1,
      "source": 2
    },
    {
      "sampler": 0,
      "source": 3
    },
    {
      "sampler": 0,
      "source": 4
    },
    {
      "sampler": 1,
      "source": 5
    },
    {
      "sampler": 0,
      "source": 6
    },
    {
      "sampler": 1,
      "source": 7
    }
  ]
}
